<svg width="34" height="33" viewBox="0 0 34 33" fill="none" xmlns="http://www.w3.org/2000/svg">
<circle cx="16.5469" cy="16.5" r="16.5" fill="#111111"/>
<path fill-rule="evenodd" clip-rule="evenodd" d="M16.5469 7.80469C20.1367 7.80469 23.0469 10.7148 23.0469 14.3047C23.0469 17.2004 18.8219 22.8197 17.1839 24.8899C17.0298 25.0846 16.7951 25.1981 16.5469 25.1981C16.2986 25.1981 16.064 25.0846 15.9099 24.8899C14.2719 22.8213 10.0469 17.2004 10.0469 14.3047C10.0469 10.7148 12.957 7.80469 16.5469 7.80469Z" stroke="white" stroke-width="1.5" stroke-linecap="round" stroke-linejoin="round"/>
<path fill-rule="evenodd" clip-rule="evenodd" d="M16.5469 16.7422C17.8931 16.7422 18.9844 15.6509 18.9844 14.3047C18.9844 12.9585 17.8931 11.8672 16.5469 11.8672C15.2007 11.8672 14.1094 12.9585 14.1094 14.3047C14.1094 15.6509 15.2007 16.7422 16.5469 16.7422Z" stroke="white" stroke-width="1.5" stroke-linecap="round" stroke-linejoin="round"/>
</svg>
