<svg width="24" height="24" viewBox="0 0 24 24" fill="none" xmlns="http://www.w3.org/2000/svg">
<path fill-rule="evenodd" clip-rule="evenodd" d="M4.9617 1.71924L9.29758 7.93603L5.78539 11.4482C5.77712 11.4565 5.76867 11.4645 5.76005 11.4722C6.57253 12.738 7.54738 13.9401 8.68601 15.0787C9.82464 16.2174 11.0268 17.1922 12.2926 18.0047C12.3003 17.9961 12.3083 17.9876 12.3165 17.9794L15.8287 14.4672L22.0455 18.8031L20.3686 20.4799C19.4332 21.4153 18.0601 21.7624 16.7926 21.3837C13.4605 20.3883 10.4746 18.5644 7.83748 15.9273C5.20035 13.2901 3.37648 10.3042 2.38106 6.97216C2.00238 5.70463 2.34941 4.33153 3.28484 3.3961L4.9617 1.71924ZM13.3535 18.6394C14.5595 19.3097 15.8203 19.8408 17.1361 20.2339C17.9811 20.4863 18.8965 20.255 19.5201 19.6314L20.1838 18.9677L15.9666 16.0264L13.3535 18.6394ZM5.12535 10.4112L7.73839 7.79816L4.79709 3.58091L4.13336 4.24463C3.50975 4.86825 3.2784 5.78365 3.53085 6.62866C3.92392 7.94445 4.45505 9.20524 5.12535 10.4112Z" fill="#F5F5F5"/>
</svg>
